<svg xmlns="http://www.w3.org/2000/svg" viewBox="0 0 1155.74 214.47" fill="currentColor"><path d="M920.02 0H815.49c-22.19 0-40.25 18.05-40.25 40.25V87.2c0 22.19 18.05 40.25 40.25 40.25h104.53c22.19 0 40.24-18.05 40.24-40.25V40.25C960.26 18.06 942.21 0 920.02 0zm7.04 87.19c0 3.88-3.16 7.04-7.04 7.04H815.49c-3.88 0-7.04-3.16-7.04-7.04V40.24c0-3.88 3.16-7.04 7.04-7.04h104.53c3.88 0 7.04 3.16 7.04 7.04v46.95zM144.18 1.07H0v126.37h144.18c22.52 0 40.85-18.32 40.85-40.85V41.91c0-22.52-18.32-40.85-40.85-40.85zm7.64 85.53c0 4.21-3.43 7.64-7.64 7.64H33.2V34.27h110.97c4.21 0 7.64 3.43 7.64 7.64v44.68zM350.62 85.4c0 5.58-2.84 8.63-3.71 8.83H235.75c-.9-.2-3.74-3.25-3.74-8.83V2.52h-33.2V85.4c0 23.18 16.56 42.04 36.92 42.04h111.19c20.36 0 36.92-18.86 36.92-42.04V2.52h-33.2V85.4zM531.51 47.12h-96.89c-1.25 0-3.64-2.71-3.64-6.96s2.39-6.96 3.64-6.96H563.8V0H434.62c-20.32 0-36.85 18.02-36.85 40.16s16.53 40.16 36.85 40.16h96.89c1.25 0 3.64 2.71 3.64 6.96s-2.39 6.96-3.64 6.96H397.78v33.2h133.73c20.32 0 36.85-18.02 36.85-40.16s-16.53-40.16-36.85-40.16zM727 0H582.32v127.44h31.33l69.4-47.12H727c20.32 0 36.84-18.02 36.84-40.16S747.31 0 727 0zm0 47.12h-54.15l-57.32 38.92V33.21H727c1.25 0 3.64 2.71 3.64 6.96s-2.39 6.96-3.64 6.96zM1118.9 80.32c20.32 0 36.85-18.02 36.85-40.16S1139.21 0 1118.9 0H974.23v127.44h31.33l56.64-38.45 46.76 38.45h44.92v-13.65l-49.11-33.46h14.13zm-111.47 5.71V33.2h111.47c1.25 0 3.64 2.71 3.64 6.96s-2.39 6.96-3.64 6.96h-54.15l-57.32 38.92z"/><path d="M1147.9 81.28c-4.05 0-7.35 3.3-7.35 7.35s3.3 7.35 7.35 7.35 7.35-3.3 7.35-7.35-3.3-7.35-7.35-7.35zm0 12.03c-2.58 0-4.68-2.1-4.68-4.68s2.1-4.68 4.68-4.68 4.68 2.1 4.68 4.68-2.1 4.68-4.68 4.68z"/><path d="M1150.79 87.39c0-1.2-.84-2.05-2.03-2.05h-3.19v6.25h1.78V89.5h.43l1.29 2.09h1.99l-1.44-2.29c.71-.32 1.18-1.03 1.18-1.91zm-2.18.51h-1.26v-.95h1.26c.25 0 .42.2.42.48s-.17.48-.42.48z"/><text transform="translate(570 195.45)" font-family="HelveticaNowDisplay-Medium,'Helvetica Now Display'" font-size="58.18" font-weight="800" fill="#1D1D1D"><tspan x="0" y="0" letter-spacing="0">P</tspan><tspan x="37" y="0">O</tspan><tspan x="81.16" y="0" letter-spacing="-.04em">R</tspan><tspan x="116.88" y="0" letter-spacing="-.13em">T</tspan><tspan x="144.98" y="0" letter-spacing="-.03em">A</tspan><tspan class="prefix__cls-6" x="184.36" y="0">S INDU</tspan><tspan x="367.45" y="0" letter-spacing="-.04em">S</tspan><tspan x="401.36" y="0" letter-spacing="0">T</tspan><tspan class="prefix__cls-6" x="436.79" y="0">R</tspan><tspan x="474.84" y="0" letter-spacing="-.02em">IA</tspan><tspan x="527.37" y="0">IS</tspan></text></svg>