<svg xmlns="http://www.w3.org/2000/svg" viewBox="0 0 687.74 639.87" fill="currentColor"><path d="M537.09 0H334.74v122.46h202.35c15.54 0 28.18 12.65 28.18 28.18v164.8c0 15.54-12.65 28.18-28.18 28.18H333.86l-211.4 143.54V245.2h212.28V122.74H0v517.13h115.56l258.95-173.78h162.58c83.07 0 150.64-67.58 150.64-150.64v-164.8C687.74 67.58 620.16 0 537.09 0z"/><path d="M297.61 51.16c14.1 0 25.58-11.48 25.58-25.58S311.71 0 297.61 0s-25.58 11.47-25.58 25.58 11.48 25.58 25.58 25.58zm0-41.86c8.97 0 16.27 7.3 16.27 16.28s-7.3 16.27-16.27 16.27-16.27-7.3-16.27-16.27 7.3-16.28 16.27-16.28z"/><path d="M295.69 28.59h1.49l4.48 7.28h6.93l-5.03-7.96c2.47-1.11 4.1-3.59 4.1-6.66 0-4.19-2.91-7.12-7.06-7.12h-11.11v21.74h6.2v-7.28zm0-8.89h4.4c.87 0 1.47.68 1.47 1.66s-.6 1.66-1.47 1.66h-4.4v-3.31z"/></svg>